<?xml version="1.0" encoding="UTF-8"?>
<svg version="1.1" xmlns="http://www.w3.org/2000/svg" width="820" height="580">
<path d="M0 0 C1.75151062 -0.00445668 1.75151062 -0.00445668 3.5384053 -0.0090034 C6.75313897 -0.01613507 9.96783989 -0.01885891 13.18258023 -0.01960087 C16.66074793 -0.02146425 20.13890435 -0.02901816 23.61706543 -0.03573608 C31.21288221 -0.04927104 38.80869368 -0.05533726 46.40452051 -0.05974674 C51.15902345 -0.06251878 55.91352439 -0.06675797 60.66802597 -0.07125092 C73.86361373 -0.08343991 87.0591999 -0.09373823 100.25479317 -0.09712601 C101.09807651 -0.09734557 101.94135985 -0.09756514 102.81019723 -0.09779136 C103.65537022 -0.09800964 104.50054322 -0.09822791 105.37132752 -0.09845281 C107.08364177 -0.09889625 108.79595602 -0.09934282 110.50827026 -0.09979248 C111.35761685 -0.10001391 112.20696344 -0.10023534 113.08204781 -0.10046348 C126.81305837 -0.10440288 140.54401559 -0.12183229 154.27500559 -0.145152 C168.41415532 -0.16896842 182.55327841 -0.1813326 196.6924485 -0.18249393 C204.61401711 -0.18340522 212.53551629 -0.18901782 220.45706558 -0.20731354 C227.2091888 -0.22285453 233.96122115 -0.22775398 240.71335889 -0.21957543 C244.14731277 -0.21571693 247.58093848 -0.21805147 251.01489258 -0.23063278 C292.43949829 -0.37335452 331.97499767 7.56721291 370.02536011 24.14044189 C370.74981323 24.45448975 371.47426636 24.7685376 372.22067261 25.09210205 C412.98803641 42.98341557 451.91784101 72.69214769 479.02536011 108.14044189 C479.81942261 109.14075439 480.61348511 110.14106689 481.43161011 111.17169189 C517.90170434 157.30625489 541.94618939 217.55194552 542.22848511 276.77325439 C542.23549942 277.75998138 542.24251373 278.74670837 542.2497406 279.76333618 C542.26715493 282.93075165 542.27359295 286.09798031 542.27536011 289.26544189 C542.27637222 290.8866394 542.27637222 290.8866394 542.27740479 292.54058838 C542.26206909 307.97030191 541.92002183 322.94346783 539.02536011 338.14044189 C538.85907104 339.08500244 538.69278198 340.02956299 538.52145386 341.00274658 C534.41480804 364.15966603 527.41224864 386.58914908 518.02536011 408.14044189 C517.71131226 408.86489502 517.3972644 409.58934814 517.07369995 410.33575439 C499.18238643 451.10311819 469.47365431 490.0329228 434.02536011 517.14044189 C433.02504761 517.93450439 432.02473511 518.72856689 430.99411011 519.54669189 C384.45809507 556.33414025 323.76722059 580.32901288 264.05072021 580.28088379 C262.29920959 580.28534047 262.29920959 580.28534047 260.51231492 580.28988719 C257.29758125 580.29701886 254.08288032 580.2997427 250.86813998 580.30048466 C247.38997228 580.30234804 243.91181587 580.30990194 240.43365479 580.31661987 C232.837838 580.33015483 225.24202653 580.33622105 217.6461997 580.34063053 C212.89169676 580.34340257 208.13719583 580.34764176 203.38269424 580.3521347 C190.18710648 580.3643237 176.99152032 580.37462202 163.79592705 580.3780098 C162.95264371 580.37822936 162.10936037 580.37844893 161.24052299 580.37867515 C159.97276349 580.37900256 159.97276349 580.37900256 158.6793927 580.3793366 C156.96707845 580.37978004 155.2547642 580.38022661 153.54244995 580.38067627 C152.26843007 580.38100841 152.26843007 580.38100841 150.96867241 580.38134727 C137.23766184 580.38528667 123.50670462 580.40271608 109.77571462 580.42603579 C95.63656489 580.44985221 81.4974418 580.46221639 67.35827172 580.46337771 C59.4367031 580.46428901 51.51520392 580.46990161 43.59365463 580.48819733 C36.84153141 580.50373832 30.08949906 580.50863777 23.33736132 580.50045922 C19.90340745 580.49660072 16.46978174 580.49893526 13.03582764 580.51151657 C-28.38877807 580.65423831 -67.92427745 572.71367088 -105.97463989 556.14044189 C-106.69909302 555.82639404 -107.42354614 555.51234619 -108.16995239 555.18878174 C-148.93731619 537.29746822 -187.86712079 507.5887361 -214.97463989 472.14044189 C-216.16573364 470.63997314 -216.16573364 470.63997314 -217.38088989 469.10919189 C-253.85098412 422.97462889 -277.89546917 362.72893827 -278.17776489 303.50762939 C-278.18828636 302.02753891 -278.18828636 302.02753891 -278.19902039 300.51754761 C-278.21643471 297.35013214 -278.22287274 294.18290348 -278.22463989 291.01544189 C-278.22531464 289.93464355 -278.22598938 288.85384521 -278.22668457 287.74029541 C-278.21134888 272.31058188 -277.86930162 257.33741596 -274.97463989 242.14044189 C-274.80835083 241.19588135 -274.64206177 240.2513208 -274.47073364 239.27813721 C-270.36408783 216.12121776 -263.36152842 193.6917347 -253.97463989 172.14044189 C-253.66059204 171.41598877 -253.34654419 170.69153564 -253.02297974 169.94512939 C-235.13166622 129.1777656 -205.4229341 90.24796099 -169.97463989 63.14044189 C-168.97432739 62.34637939 -167.97401489 61.55231689 -166.94338989 60.73419189 C-120.40737485 23.94674354 -59.71650038 -0.04812909 0 0 Z " fill="#FFFFFF" transform="translate(277.9746398925781,-0.14044189453125)"/>
</svg>
