<svg width="157" height="122" viewBox="0 0 157 122" fill="none" xmlns="http://www.w3.org/2000/svg">
<rect width="157" height="122" fill="#1E1E1E"/>
<g id="Pharma - Manufacturer">
<rect width="1920" height="3215" transform="translate(-886 -1081)" fill="#F5F5F5"/>
<path id="Vector" d="M85.1013 12.4148C84.0906 11.3999 82.9062 10.8995 81.534 10.8995C80.163 10.8995 78.9619 11.3999 77.9679 12.4148L72.5313 17.8562C71.0734 16.9093 69.5312 16.0818 67.9188 15.3415C66.3076 14.6011 64.6606 13.966 62.9971 13.4143V5.04368C62.9971 3.63232 62.5179 2.44421 61.5392 1.46268C60.5643 0.481145 59.3812 0 57.9744 0H47.5139C46.1761 0 45.0121 0.481145 44.0002 1.46268C43.0061 2.44421 42.5078 3.63232 42.5078 5.04368V12.7073C40.76 13.1192 39.0619 13.6363 37.4315 14.274C35.7871 14.9103 34.2271 15.6353 32.7513 16.4436L26.7321 10.4851C25.7891 9.48689 24.6405 8.96982 23.2516 8.96982C21.8781 8.96982 20.6962 9.48689 19.6843 10.4851L12.363 17.8562C11.3524 18.8711 10.8541 20.0605 10.8541 21.436C10.8541 22.8139 11.3524 24.02 12.363 25.0182L17.783 30.4776C16.8401 31.9403 16.0173 33.4902 15.28 35.1069C14.5415 36.7261 13.9091 38.3812 13.3584 40.0505H5.0252C3.61717 40.0505 2.43402 40.5316 1.45786 41.5131C0.480416 42.496 0 43.6841 0 45.0967V55.6011C0 56.9418 0.480416 58.1146 1.45658 59.1307C2.43274 60.1277 3.61717 60.6281 5.02392 60.6281H12.6531C13.0645 62.382 13.5781 64.0872 14.2144 65.7231C14.8507 67.3769 15.5701 68.9782 16.375 70.5268L10.4414 76.4673C9.44605 77.4155 8.93241 78.569 8.93241 79.9649C8.93241 81.3417 9.44605 82.531 10.4414 83.5472L17.7818 91.003C18.7924 91.9499 19.9756 92.417 21.3491 92.417C22.7188 92.417 23.9186 91.9512 24.9152 91.003L30.3505 85.459C31.8071 86.4046 33.3518 87.2309 34.963 87.9738C36.5755 88.7115 38.2212 89.3505 39.8847 89.9009V98.2702C39.8847 99.6816 40.3651 100.868 41.3413 101.849C42.3187 102.833 43.5032 103.315 44.9086 103.315H55.3679C56.7057 103.315 57.8709 102.833 58.8829 101.849C59.8756 100.868 60.3739 99.6816 60.3739 98.2702V90.6066C62.1231 90.1947 63.8199 89.6777 65.449 89.0387C67.0959 88.4023 68.6918 87.6774 70.2327 86.869L76.1484 92.8288C77.0927 93.827 78.2567 94.3441 79.666 94.3441C81.0868 94.3441 82.2533 93.8283 83.1988 92.8288L90.6235 85.459C91.5665 84.4415 92.0316 83.2534 92.0316 81.8767C92.0316 80.5 91.5677 79.2939 90.6235 78.2957L85.1026 72.8363C86.0455 71.3723 86.8684 69.8237 87.6069 68.2058C88.3416 66.5878 88.9766 64.9327 89.526 63.2634H97.8604C99.2659 63.2634 100.448 62.7785 101.424 61.7995C102.403 60.8167 102.883 59.6298 102.883 58.2172V47.7141C102.883 46.3708 102.403 45.2019 101.424 44.1832C100.448 43.185 99.2659 42.6859 97.8604 42.6859H90.2287C89.8173 40.9986 89.3024 39.3114 88.6674 37.6422C88.0336 35.9537 87.3117 34.3704 86.5068 32.8872L92.4417 26.8453C93.4357 25.8984 93.9507 24.7437 93.9507 23.3503C93.9507 21.971 93.437 20.7842 92.4417 19.768L85.1013 12.4148ZM142.998 68.8345C142.351 68.379 141.664 68.2199 140.919 68.352C140.174 68.4816 139.568 68.8665 139.129 69.5119L136.691 72.9787C135.812 72.6041 134.9 72.3038 133.952 72.0536C133.01 71.8047 132.056 71.6136 131.101 71.475L130.314 66.9355C130.18 66.1708 129.809 65.5717 129.185 65.1316C128.564 64.6915 127.876 64.5427 127.113 64.6774L121.439 65.6705C120.716 65.7975 120.129 66.1708 119.672 66.7983C119.225 67.4231 119.065 68.116 119.201 68.8832L119.921 73.0377C119.01 73.4265 118.139 73.8692 117.319 74.3696C116.483 74.8725 115.705 75.4114 114.983 75.9913L111.156 73.3316C110.548 72.8799 109.88 72.7106 109.125 72.8401C108.38 72.9723 107.788 73.3624 107.333 74L104.057 78.6947C103.605 79.3414 103.445 80.0342 103.576 80.7771C103.706 81.5277 104.089 82.1333 104.732 82.5785L108.186 85.0253C107.812 85.9067 107.512 86.8241 107.264 87.7762C107.015 88.7231 106.826 89.6802 106.687 90.6386L102.166 91.429C101.405 91.5624 100.808 91.9371 100.37 92.5632C99.9303 93.1868 99.7846 93.8784 99.9175 94.6431L100.905 100.341C101.032 101.067 101.401 101.657 102.03 102.116C102.652 102.565 103.342 102.724 104.105 102.589L108.243 101.865C108.631 102.78 109.071 103.654 109.569 104.481C110.07 105.318 110.611 106.116 111.195 106.88L108.536 110.667C108.085 111.277 107.916 111.949 108.046 112.707C108.177 113.455 108.565 114.051 109.201 114.506L113.884 117.851C114.522 118.268 115.208 118.41 115.951 118.279C116.696 118.15 117.304 117.78 117.753 117.173L120.179 113.65C121.058 114.026 121.972 114.328 122.919 114.575C123.862 114.824 124.815 115.015 125.768 115.153L126.558 119.695C126.69 120.461 127.064 121.059 127.686 121.496C128.307 121.937 128.995 122.086 129.757 121.953L135.429 120.958C136.156 120.83 136.742 120.459 137.2 119.831C137.645 119.205 137.805 118.516 137.67 117.747L136.948 113.589C137.859 113.2 138.732 112.76 139.554 112.258C140.386 111.754 141.182 111.214 141.944 110.629L145.714 113.299C146.321 113.75 147.002 113.918 147.764 113.784C148.535 113.65 149.119 113.259 149.537 112.628L152.871 107.925C153.285 107.284 153.426 106.596 153.295 105.849C153.166 105.101 152.8 104.49 152.196 104.04L148.685 101.604C149.06 100.721 149.359 99.8035 149.607 98.8527C149.855 97.9059 150.044 96.9487 150.185 95.989L154.704 95.1986C155.467 95.0652 156.062 94.6931 156.499 94.0657C156.939 93.4396 157.086 92.7518 156.953 91.9859L155.963 86.2878C155.836 85.5603 155.466 84.9727 154.84 84.5121C154.217 84.0617 153.527 83.9052 152.765 84.0386L148.626 84.7636C148.244 83.8859 147.806 83.0212 147.304 82.1756C146.799 81.3198 146.261 80.5295 145.685 79.802L148.335 75.9593C148.786 75.3498 148.953 74.6788 148.82 73.9192C148.691 73.1712 148.303 72.5784 147.665 72.1216L142.998 68.8345ZM126.697 83.3073C128.065 83.0661 129.403 83.0994 130.718 83.4035C132.027 83.7191 133.213 84.2465 134.266 84.983C135.32 85.7297 136.212 86.6714 136.95 87.8031C137.683 88.9437 138.164 90.196 138.406 91.5702C138.645 92.9456 138.61 94.2889 138.309 95.6118C137.994 96.9243 137.472 98.1124 136.733 99.1735C135.99 100.229 135.054 101.126 133.927 101.868C132.792 102.603 131.544 103.088 130.175 103.329C128.808 103.568 127.47 103.533 126.153 103.231C124.843 102.915 123.661 102.39 122.604 101.65C121.554 100.903 120.66 99.9639 119.921 98.8322C119.19 97.6916 118.705 96.438 118.467 95.0639C118.227 93.691 118.26 92.3477 118.563 91.0248C118.877 89.7097 119.402 88.5216 120.136 87.4605C120.881 86.4071 121.817 85.509 122.944 84.7674C124.083 84.0322 125.33 83.5472 126.697 83.3073ZM51.4428 31.0807C54.255 31.0807 56.9114 31.6157 59.431 32.6819C61.9366 33.7674 64.1151 35.23 65.9664 37.0712C67.7999 38.9304 69.2565 41.1205 70.3375 43.6315C71.4018 46.1629 71.932 48.833 71.932 51.6557C71.932 54.4797 71.4018 57.1497 70.3375 59.6799C69.2565 62.1934 67.7999 64.3836 65.9664 66.2427C64.1151 68.0852 61.9366 69.5466 59.431 70.632C56.9114 71.7008 54.255 72.2333 51.4428 72.2333C48.6306 72.2333 45.9717 71.7008 43.4508 70.632C40.9491 69.5466 38.7693 68.0852 36.9192 66.2427C35.0831 64.3836 33.6265 62.1947 32.5456 59.6799C31.4838 57.1497 30.951 54.4797 30.951 51.6557C30.951 48.833 31.4838 46.1629 32.5456 43.6315C33.6265 41.1193 35.0831 38.9304 36.9192 37.0712C38.7693 35.23 40.9491 33.7661 43.4508 32.6819C45.9704 31.6157 48.6306 31.0807 51.4428 31.0807Z" fill="black"/>
</g>
</svg>
