<svg width="120" height="120" viewBox="0 0 120 120" fill="none" xmlns="http://www.w3.org/2000/svg">
<path d="M31.9042 108.557H32.0897C32.1901 108.543 32.292 108.543 32.3924 108.557H55.2763C55.4763 108.557 55.6744 108.597 55.8592 108.675C56.0439 108.752 56.2118 108.866 56.3532 109.009C56.4947 109.152 56.6069 109.322 56.6834 109.509C56.7599 109.696 56.7993 109.896 56.7993 110.099V118.449C56.8006 118.652 56.7622 118.853 56.6862 119.042C56.6102 119.23 56.4983 119.401 56.3567 119.545C56.2152 119.689 56.0468 119.804 55.8614 119.882C55.676 119.96 55.4772 120 55.2763 120H31.2599C31.059 120 30.8602 119.96 30.6748 119.882C30.4894 119.804 30.321 119.689 30.1795 119.545C30.0379 119.401 29.926 119.23 29.85 119.042C29.774 118.853 29.7356 118.652 29.7369 118.449V110.099C29.7317 109.893 29.7672 109.688 29.8414 109.497C29.9156 109.305 30.027 109.131 30.1689 108.983C30.3109 108.836 30.4805 108.719 30.6679 108.639C30.8553 108.559 31.0565 108.518 31.2599 108.518H31.582C31.702 108.503 31.8233 108.503 31.9433 108.518L31.9042 108.557ZM92.3066 10.5632C93.9467 44.1601 81.7042 63.9229 60.0113 72.1937C39.0701 64.4466 26.6811 45.4545 27.5988 10.0593C38.6113 10.6423 49.4187 8.23123 59.8941 0C69.1883 5.92885 81.0501 11.6107 92.3066 10.5632ZM40.2221 48.9229C43.8734 44.7628 51.6055 45.751 54.7491 41.3735C54.8967 41.2017 54.9976 40.994 55.042 40.7707C55.042 40.6917 51.9375 36.2549 51.6641 35.83C50.9319 34.6739 49.5749 33.0731 49.5749 31.6996C49.598 31.259 49.7507 30.8354 50.0134 30.4833C50.276 30.1311 50.6367 29.8665 51.049 29.7233C50.9807 28.5573 50.9319 27.3715 50.9319 26.2055C50.9319 25.5138 50.9319 24.8123 50.9319 24.1304C50.9703 23.6958 51.0487 23.2657 51.1662 22.8458C51.7021 21.0858 52.864 19.5894 54.427 18.6462C54.9843 18.2999 55.5767 18.015 56.194 17.7964C57.3265 17.3814 56.77 15.4644 58.0001 15.4447C60.8704 15.3656 65.5858 18.0237 67.431 20.0494C68.5866 21.3259 69.2606 22.9739 69.3347 24.7036L69.2176 29.7925C69.4903 29.8495 69.7443 29.9754 69.956 30.1586C70.1677 30.3417 70.3301 30.5761 70.4282 30.8399C70.8187 32.4506 69.1785 34.4466 68.4073 35.7213C67.636 36.996 65.0001 40.7213 65.0001 40.7411C65.0211 40.959 65.1061 41.1654 65.2441 41.334C68.417 45.7411 76.2273 44.7134 79.8883 48.9624C84.7697 40.5534 87.1128 29.3874 86.4196 15.2174C77.145 16.1067 67.4993 11.4921 59.9137 6.63043C52.4601 12.6246 43.0473 15.5534 33.5541 14.832C33.2124 29.4466 35.5555 40.6225 40.2221 48.9229ZM87.2202 104.901H64.7658C64.5661 104.894 64.37 104.846 64.1886 104.761C64.0072 104.677 63.8442 104.556 63.709 104.407C63.5737 104.259 63.469 104.084 63.4007 103.894C63.3324 103.704 63.3019 103.502 63.3111 103.3V102.312L63.3697 101.324C63.3697 100.741 63.4576 100.079 63.5259 99.3478C63.5942 98.6166 63.6626 97.915 63.7309 97.3715C63.9164 95.7213 64.0824 94.2885 64.3069 93.004C64.5037 91.7698 64.831 90.5606 65.2832 89.3972C65.7309 88.2643 66.3429 87.2053 67.0991 86.2549C68.0246 85.1057 69.0613 84.053 70.1939 83.1126C70.1939 83.1126 70.8968 82.5198 70.9651 82.4704C71.258 82.2233 71.5411 81.996 71.795 81.8083C72.0976 81.581 72.371 81.3735 72.6346 81.2055C72.9196 81.0063 73.2163 80.8249 73.523 80.662C76.569 78.9723 80.3569 74.8913 83.6567 71.3834C85.0528 69.8814 86.361 68.4783 87.5619 67.3715L92.7069 62.253C92.7474 62.2219 92.7835 62.1853 92.8142 62.1443C93.4025 61.4251 94.0563 60.7634 94.7668 60.168C95.426 59.6283 96.1552 59.1828 96.9341 58.8439C97.9658 58.4055 99.1103 58.3188 100.195 58.5968C100.736 58.7423 101.244 58.9941 101.689 59.3379C102.167 59.718 102.543 60.2142 102.782 60.7806C103.115 61.6282 103.156 62.5645 102.899 63.4387C102.731 64.0626 102.467 64.656 102.118 65.1976C101.769 65.7518 101.352 66.2597 100.878 66.7095C95.9383 71.5514 91.2912 78.8439 86.3415 83.8439C86.2453 83.9595 86.1965 84.108 86.2048 84.2589C86.2126 84.4103 86.2793 84.5524 86.3903 84.6541C86.5046 84.7515 86.6513 84.801 86.8004 84.7925C86.9343 84.7879 87.0623 84.7354 87.1616 84.6443C87.192 84.5971 87.2281 84.554 87.269 84.5158L103.202 69.17C103.532 68.8649 103.839 68.5346 104.12 68.1818C104.389 67.8366 104.631 67.4697 104.842 67.085C104.882 67.0153 104.928 66.9492 104.979 66.8874C106.668 64.3676 111.451 51.3142 113.013 47.5395C113.083 47.3744 113.183 47.2236 113.306 47.0949C113.723 46.6191 114.21 46.2123 114.751 45.8893C115.277 45.5653 115.867 45.3628 116.479 45.2964C116.777 45.247 117.08 45.247 117.377 45.2964C117.656 45.3541 117.923 45.4576 118.168 45.6028L118.246 45.6522C118.531 45.8379 118.78 46.0758 118.979 46.3538L119.057 46.4526C119.261 46.7589 119.426 47.0911 119.545 47.4407C119.991 48.8263 120.111 50.2982 119.896 51.7391C119.666 53.5752 119.24 55.3807 118.627 57.1245L115.923 66.7194C115.64 67.7075 115.464 68.3794 115.347 68.8241L114.878 70.6028C114.325 73.0927 113.523 75.5195 112.486 77.8458C111.07 80.5207 109.318 82.9985 107.273 85.2174C104.988 87.8854 102.733 90.2767 100.527 92.5099C98.3204 94.7431 96.1531 96.8379 94.0443 98.8142L91.1155 101.571L91.0472 101.65C90.0709 102.559 89.1922 103.458 88.3234 104.328C88.1808 104.496 88.0041 104.631 87.8052 104.723C87.6063 104.815 87.3901 104.862 87.1713 104.862L87.2202 104.901ZM88.0305 108.557H88.0988C88.2155 108.543 88.3336 108.543 88.4503 108.557H88.7822C89.1861 108.557 89.5735 108.72 89.8591 109.009C90.1448 109.298 90.3052 109.69 90.3052 110.099V118.449C90.3065 118.652 90.2681 118.853 90.1921 119.042C90.1161 119.23 90.0041 119.401 89.8626 119.545C89.721 119.689 89.5527 119.804 89.3673 119.882C89.1819 119.96 88.983 120 88.7822 120H64.7267C64.5259 120 64.327 119.96 64.1416 119.882C63.9562 119.804 63.7879 119.689 63.6463 119.545C63.5048 119.401 63.3928 119.23 63.3168 119.042C63.2409 118.853 63.2024 118.652 63.2037 118.449V110.099C63.2037 109.69 63.3642 109.298 63.6498 109.009C63.9354 108.72 64.3228 108.557 64.7267 108.557H87.6107C87.7111 108.543 87.813 108.543 87.9133 108.557H88.0305ZM55.2178 104.901H32.7633C32.5446 104.902 32.3284 104.854 32.1295 104.762C31.9306 104.67 31.7539 104.536 31.6113 104.368C30.7424 103.498 29.8247 102.599 28.8875 101.69L28.8094 101.611L25.9587 98.8142C23.8499 96.8379 21.7021 94.7431 19.4762 92.4901C17.2503 90.2371 15.0146 87.9447 12.7106 85.2371C10.6713 83.0179 8.92542 80.54 7.51678 77.8656C6.4798 75.5392 5.67841 73.1125 5.1249 70.6225L4.65629 68.8439C4.53913 68.3992 4.3634 67.7569 4.07052 66.7391L1.37599 57.1443C0.763024 55.4005 0.337513 53.5949 0.106827 51.7589C-0.112954 50.3083 0.00744158 48.8257 0.458287 47.4308C0.577509 47.0812 0.741628 46.749 0.946426 46.4427H0.99524C1.19405 46.1647 1.44237 45.9268 1.72745 45.7411L1.80555 45.6917C2.05081 45.5465 2.31796 45.443 2.59634 45.3854C2.89374 45.336 3.19711 45.336 3.49451 45.3854C4.10664 45.4517 4.69671 45.6542 5.22253 45.9783C5.76169 46.3037 6.24887 46.7102 6.66742 47.1838C6.79148 47.3103 6.88793 47.4618 6.95054 47.6285C8.52235 51.413 13.3061 64.4269 14.9951 66.9763C15.0461 67.0381 15.0918 67.1042 15.1318 67.1739C15.3562 67.5291 15.6075 67.866 15.8835 68.1818C16.1639 68.5346 16.4707 68.8649 16.8012 69.17L32.695 84.4862C32.7359 84.5243 32.772 84.5675 32.8024 84.6146C32.9017 84.7057 33.0297 84.7583 33.1636 84.7628C33.3127 84.7713 33.4594 84.7218 33.5737 84.6245C33.6847 84.5228 33.7514 84.3806 33.7591 84.2292C33.7641 84.1536 33.7537 84.0777 33.7285 84.0063C33.7033 83.935 33.6639 83.8696 33.6127 83.8142C29.1511 78.7253 23.7035 71.245 19.0857 66.7194C18.6122 66.2702 18.1928 65.7661 17.836 65.2174C17.4937 64.6733 17.2337 64.0805 17.0648 63.4585C16.8078 62.5843 16.8491 61.648 17.1819 60.8004C17.4206 60.234 17.7967 59.7377 18.2754 59.3577C18.7193 59.0121 19.2272 58.7601 19.7691 58.6166C20.8537 58.3386 21.9982 58.4253 23.0298 58.8636C23.8087 59.2026 24.538 59.6481 25.1972 60.1877C25.9077 60.7832 26.5615 61.4448 27.1497 62.164C28.6727 63.8834 30.8108 65.7806 32.4802 67.4308C33.6322 68.5375 34.9404 69.9407 36.3853 71.4427C39.6559 74.9506 43.4731 79.0316 46.5191 80.7213C46.8258 80.8841 47.1225 81.0656 47.4075 81.2648C47.6711 81.4328 47.9445 81.6403 48.2471 81.8676C48.501 82.0553 48.7743 82.2826 49.077 82.5296C49.1453 82.5296 49.8385 83.1818 49.8482 83.1719C50.9784 84.1149 52.0149 85.1674 52.943 86.3142C53.6992 87.2645 54.3112 88.3236 54.7589 89.4565C55.2111 90.6199 55.5384 91.8291 55.7352 93.0632C55.9597 94.3478 56.1257 95.7806 56.3112 97.4308C56.3795 97.9941 56.4479 98.666 56.5162 99.4071C56.5845 100.148 56.6334 100.81 56.6724 101.383L56.731 102.372L56.7798 103.36C56.789 103.562 56.7585 103.763 56.6902 103.953C56.6219 104.144 56.5172 104.318 56.3819 104.467C56.2467 104.616 56.0837 104.736 55.9023 104.821C55.7209 104.905 55.5248 104.953 55.3251 104.96H55.2568L55.2178 104.901Z" fill="black"/>
</svg>
