<svg width="83" height="77" viewBox="0 0 83 77" fill="none" xmlns="http://www.w3.org/2000/svg">
<path fill-rule="evenodd" clip-rule="evenodd" d="M2.12722 29.4431H7.16253V0H20.1412V29.4431H24.9275V7.00738H34.9039V29.4431H47.8489V19.9519L62.7664 29.4431H65.4792V19.9519L80.3967 29.4431H80.5919C81.7632 29.4431 82.7259 30.4057 82.7259 31.577V74.8531C82.7259 76.0244 81.7632 76.987 80.5919 76.987H2.12722C0.955902 76.987 0 76.0244 0 74.8531V31.577C0 30.4057 0.955902 29.4431 2.12722 29.4431ZM51.0532 50.3239H43.5676C43.231 50.3239 42.955 50.5999 42.955 50.9365V58.4218C42.955 58.7584 43.231 59.0343 43.5676 59.0343H51.0532C51.3898 59.0343 51.6658 58.7584 51.6658 58.4218V50.9365C51.6658 50.5999 51.3898 50.3239 51.0532 50.3239ZM51.6658 39.1094H44.1801C43.8436 39.1094 43.5676 39.3854 43.5676 39.722V47.2073C43.5676 47.5438 43.8436 47.8198 44.1801 47.8198H51.6658C52.0024 47.8198 52.2784 47.5438 52.2784 47.2073V39.722C52.2784 39.3854 52.0024 39.1094 51.6658 39.1094ZM57.3339 39.722H64.8195C65.1561 39.722 65.4321 39.998 65.4321 40.3345V47.8198C65.4321 48.1564 65.1561 48.4324 64.8195 48.4324H57.3339C56.9973 48.4324 56.7213 48.1564 56.7213 47.8198V40.3345C56.7213 39.998 56.9973 39.722 57.3339 39.722ZM69.2625 40.3345H76.7481C77.0847 40.3345 77.3607 40.6105 77.3607 40.9471V48.4324C77.3607 48.769 77.0847 49.045 76.7481 49.045H69.2625C68.9259 49.045 68.6499 48.769 68.6499 48.4324V40.9471C68.6499 40.6105 68.9259 40.3345 69.2625 40.3345ZM68.6499 52.7809H76.1355C76.4721 52.7809 76.7481 53.0569 76.7481 53.3934V60.8787C76.7481 61.2153 76.4721 61.4913 76.1355 61.4913H68.6499C68.3133 61.4913 68.0373 61.2153 68.0373 60.8787V53.3934C68.0373 53.0501 68.3066 52.7809 68.6499 52.7809ZM55.4894 53.3934H62.9751C63.3116 53.3934 63.5876 53.6694 63.5876 54.006V61.4913C63.5876 61.8279 63.3116 62.1039 62.9751 62.1039H55.4894C55.1528 62.1039 54.8768 61.8279 54.8768 61.4913V54.006C54.8768 53.6627 55.1528 53.3934 55.4894 53.3934Z" fill="#0075C5"/>
</svg>
