<svg width="73" height="71" viewBox="0 0 73 71" fill="none" xmlns="http://www.w3.org/2000/svg">
<g id="Group">
<path id="Vector" d="M29.6156 0H29.6251V0.00414863C37.8004 0.00651928 45.2031 3.32365 50.5601 8.68368C55.9082 14.036 59.2212 21.4348 59.2265 29.6064H59.2307V29.626V29.6497H59.2265C59.2236 32.9431 58.6833 36.1126 57.6897 39.0682C57.5232 39.5643 57.3491 40.0408 57.1701 40.496V40.5001C56.3134 42.6693 55.2061 44.7199 53.8838 46.6087L71.1136 62.1003L71.1242 62.1097L71.2172 62.1963L71.2238 62.2028C72.1966 63.1291 72.7262 64.3696 72.7932 65.6284C72.8583 66.873 72.4715 68.146 71.6207 69.1672L71.6142 69.1766L71.5105 69.297L71.4898 69.3177L71.4033 69.4125L71.3938 69.425C70.4666 70.3981 69.229 70.9268 67.9694 70.9931C66.727 71.0589 65.4532 70.6731 64.4319 69.8209L64.423 69.8143L64.3021 69.7106L64.2849 69.6964L46.6623 53.8522C46.141 54.2196 45.609 54.5687 45.0704 54.8982C44.3399 55.3457 43.5834 55.7671 42.8114 56.1517C38.8425 58.1324 34.3577 59.2466 29.6162 59.2466V59.2507H29.6068V59.2466C21.4315 59.2442 14.0276 55.9271 8.67058 50.5671C3.32071 45.2147 0.00947928 37.8148 0.00414719 29.6455H0V29.626V29.6165H0.00414719C0.00651701 21.4383 3.32249 14.0319 8.68065 8.67301C14.0311 3.32365 21.4273 0.00948258 29.5961 0.00414863V0H29.6156ZM29.6251 6.64374V6.64788H29.6156H29.5961V6.64374C23.2651 6.64788 17.5266 9.22181 13.3723 13.3758C9.2186 17.5297 6.6432 23.2762 6.64142 29.6171H6.64557V29.6266V29.6461H6.64142C6.64557 35.9793 9.21682 41.7169 13.3711 45.8738C17.5236 50.0295 23.2681 52.6058 29.6062 52.607V52.6029H29.6156H29.6352V52.607C35.9662 52.6029 41.7023 50.0301 45.8578 45.875C50.0115 41.721 52.5869 35.9763 52.5881 29.636H52.5845V29.6266V29.607H52.5881C52.5845 23.2738 50.0109 17.5333 45.859 13.3776C41.7065 9.22181 35.9638 6.64551 29.6251 6.64374Z" fill="#0075C5"/>
</g>
</svg>
