<svg width="69" height="74" viewBox="0 0 69 74" fill="none" xmlns="http://www.w3.org/2000/svg">
<path id="Vector" fill-rule="evenodd" clip-rule="evenodd" d="M45.8698 16.264C47.819 17.4027 49.5748 18.8399 51.0726 20.5227C52.5494 22.1745 53.7344 24.0624 54.5775 26.1065C55.0503 27.2643 55.4256 28.4591 55.6994 29.6785C56.3192 32.4511 56.3687 35.3195 55.8449 38.1115C55.5562 39.6168 55.1174 41.0898 54.5351 42.5087L54.4684 42.6593C53.2556 45.6711 51.0848 48.5865 49.0109 51.4658C47.9558 52.9235 46.9067 54.3631 46.0275 55.7606C45.7508 56.1953 45.3603 56.5472 44.8978 56.7785C44.4353 57.0098 43.9182 57.1118 43.4018 57.0737L26.7141 59.5373C26.0259 59.6368 25.3248 59.4829 24.7429 59.1046C24.161 58.7262 23.7384 58.1496 23.5548 57.4833C23.1399 56.2793 22.6268 55.1108 22.0206 53.9896C21.5172 53.0257 20.9071 52.1205 20.2015 51.2911C19.3404 50.3153 18.4611 49.3154 17.5879 48.1889C16.6138 46.8858 15.7729 45.4894 15.0775 44.0206C14.3462 42.4766 13.7773 40.8618 13.3796 39.2018C12.9849 37.54 12.7916 35.8373 12.8035 34.1299C12.8211 32.3547 13.0594 30.5885 13.513 28.8714C13.9975 27.0283 14.6912 25.246 15.5808 23.5586L15.7021 23.3417C16.8487 21.3848 18.3044 19.6236 20.0135 18.1253C21.7109 16.6517 23.6434 15.4689 25.7317 14.6256L25.9076 14.5594C27.4681 13.9433 29.0964 13.5127 30.7587 13.2763C32.5165 13.0312 34.2972 12.9908 36.0645 13.1559C37.7895 13.3118 39.4917 13.6572 41.14 14.1859C42.7905 14.6991 44.3772 15.3962 45.8698 16.264ZM43.517 68.8799C42.6027 70.446 41.2947 71.7494 39.7211 72.6627C38.3905 73.4326 36.8978 73.8842 35.3611 73.9819C33.8172 74.0797 32.2739 73.7809 30.8799 73.1145C29.8816 72.626 28.9815 71.9605 28.224 71.1508L43.517 68.8799ZM44.9724 60.3806V61.3745V61.7179C45.0178 62.3697 45.0178 63.0238 44.9724 63.6755L44.6692 65.1091L26.138 67.8438L25.8166 67.109L25.095 64.1695V63.3141L44.9239 60.3806H44.9724ZM34.0574 2.24719C34.0749 1.63792 34.3337 1.06013 34.7777 0.639407C35.2217 0.218685 35.8149 -0.010956 36.4284 0.000402128H36.586C37.1563 0.0508549 37.6887 0.305626 38.0838 0.717207C38.5013 1.1542 38.7318 1.73511 38.7266 2.33755C38.7298 2.37764 38.7298 2.41792 38.7266 2.45802L38.5992 7.39132C38.6022 7.44348 38.6022 7.49577 38.5992 7.54793C38.5545 8.13107 38.2873 8.67524 37.8523 9.0693C37.4173 9.46337 36.8473 9.67759 36.2586 9.66823H36.0949C35.5266 9.6262 34.9946 9.37486 34.6032 8.96347C34.1831 8.52567 33.9524 7.94186 33.9604 7.33711C33.9572 7.29701 33.9572 7.25673 33.9604 7.21664L34.0817 2.26526L34.0574 2.24719ZM8.49213 10.9031C8.04408 10.4831 7.77866 9.90611 7.75234 9.29477C7.73853 8.99027 7.78559 8.68608 7.89082 8.39975C7.99605 8.11343 8.15735 7.85066 8.3654 7.62663C8.57346 7.40259 8.82415 7.22173 9.10298 7.09449C9.38181 6.96726 9.68326 6.89617 9.98991 6.88534C10.604 6.85963 11.2034 7.07616 11.6575 7.4877L15.3807 10.9392C15.8313 11.3566 16.0975 11.934 16.1214 12.5455C16.1453 13.1571 15.9248 13.7532 15.508 14.204C15.0834 14.6499 14.5003 14.9136 13.8829 14.9388C13.2707 14.9643 12.6732 14.7477 12.2214 14.3365L8.49213 10.9031ZM2.42826 36.3346C2.12083 36.3458 1.81418 36.2968 1.52585 36.1903C1.23751 36.0837 0.973145 35.9218 0.747871 35.7136C0.522596 35.5055 0.340831 35.2554 0.21297 34.9774C0.0851101 34.6995 0.0136627 34.3992 0.00271437 34.0938C-0.012108 33.7915 0.0338843 33.4893 0.138002 33.2049C0.24212 32.9205 0.402274 32.6595 0.609101 32.4373C0.818382 32.216 1.06978 32.0382 1.34874 31.9141C1.6277 31.7901 1.92867 31.7222 2.23422 31.7145L7.31574 31.5458C7.62326 31.5321 7.93046 31.5793 8.21947 31.6845C8.50848 31.7898 8.77354 31.9511 8.99924 32.1591C9.22493 32.367 9.40676 32.6174 9.53415 32.8958C9.66154 33.1742 9.73195 33.4749 9.74129 33.7806V33.8167V33.901C9.73498 34.4695 9.51926 35.0159 9.1349 35.437C8.92124 35.6579 8.66523 35.8341 8.38196 35.9551C8.09869 36.0761 7.79389 36.1396 7.48553 36.1418H7.39457L2.37369 36.3105L2.42826 36.3346ZM66.4627 29.1725H66.5416C67.1228 29.1376 67.6961 29.3203 68.1485 29.6845C68.6253 30.0748 68.9299 30.6346 68.9974 31.2446C68.9974 31.2446 68.9974 31.3049 68.9974 31.3169C69.0254 31.9072 68.8248 32.4858 68.4369 32.9338C68.049 33.3819 67.5032 33.6655 66.9115 33.7264L61.8542 34.3347C61.2408 34.3971 60.6275 34.2152 60.149 33.829C59.6704 33.4428 59.3655 32.8838 59.3013 32.2747C59.2386 31.6644 59.4225 31.0544 59.8126 30.5788C60.2026 30.1033 60.7669 29.8011 61.3812 29.7388C63.067 29.558 64.7648 29.3653 66.4567 29.2027L66.4627 29.1725ZM56.4452 9.06587C56.6139 8.81323 56.8313 8.59628 57.0848 8.42757C57.3384 8.25885 57.6231 8.1417 57.9225 8.0829C58.2218 8.02409 58.53 8.02479 58.8291 8.08495C59.1282 8.14511 59.4124 8.26354 59.6651 8.4334C59.9179 8.60173 60.1345 8.81838 60.3021 9.07073C60.4697 9.32307 60.5851 9.60605 60.6414 9.90315C60.7594 10.5041 60.6353 11.127 60.2958 11.6379L57.4639 15.8544C57.1166 16.3625 56.5803 16.7126 55.973 16.8278C55.3657 16.943 54.7373 16.8139 54.2258 16.4688C53.7144 16.1238 53.3619 15.591 53.2459 14.9878C53.13 14.3846 53.2599 13.7603 53.6073 13.2523L56.4452 9.03575V9.06587ZM37.15 33.0758H40.7216C40.8442 33.0758 40.9657 33.0998 41.079 33.1464C41.1923 33.193 41.2952 33.2614 41.3819 33.3475C41.4686 33.4336 41.5374 33.5359 41.5844 33.6485C41.6313 33.761 41.6554 33.8816 41.6554 34.0034C41.6552 34.1877 41.6003 34.3679 41.4978 34.5215L33.0084 48.9359C32.9454 49.0403 32.8623 49.1313 32.7638 49.2036C32.6653 49.276 32.5533 49.3282 32.4343 49.3573C32.3154 49.3864 32.1918 49.3919 32.0707 49.3733C31.9496 49.3547 31.8334 49.3125 31.7289 49.2491C31.5633 49.1499 31.4325 49.0024 31.3543 48.8267C31.2762 48.651 31.2545 48.4556 31.2923 48.2672L32.5475 39.4247L28.3028 39.4969C28.1804 39.4993 28.0588 39.4777 27.945 39.4332C27.8311 39.3887 27.7272 39.3222 27.6393 39.2377C27.5513 39.1532 27.4811 39.0522 27.4326 38.9406C27.3842 38.829 27.3584 38.7089 27.3568 38.5874C27.3515 38.416 27.3957 38.2467 27.4842 38.0995L35.8462 23.6911C35.9736 23.4806 36.1793 23.3285 36.4188 23.2676C36.6583 23.2067 36.9123 23.242 37.1257 23.3658C37.29 23.4545 37.4232 23.5908 37.5076 23.7565C37.5921 23.9221 37.6239 24.1094 37.5987 24.2935L37.1742 33.0758H37.15Z" fill="#0075C5"/>
</svg>
