<svg width="106" height="62" viewBox="0 0 106 62" fill="none" xmlns="http://www.w3.org/2000/svg">
<g id="Group">
<path id="Vector" fill-rule="evenodd" clip-rule="evenodd" d="M79.3295 55.5869L81.0387 49.0632L79.862 47.7739C79.3295 47.0003 79.2178 46.3213 79.5098 45.7369C80.1454 44.4734 81.4681 44.7054 82.7049 44.7054C84.0018 44.7054 85.5993 44.4562 86.003 46.0807C86.1404 46.6222 85.9686 47.1894 85.5907 47.7739L84.414 49.0632L85.4361 52.9825L92.2127 47.0863L95.7255 47.1722C94.5145 44.7398 92.9771 42.677 91.1906 40.7345C94.5574 42.041 98.0015 43.3302 100.552 44.9289C102.176 45.9431 103.009 46.7167 103.67 47.9458C105.062 50.5673 105.216 52.9138 105.422 55.7502L105.912 58.2084H86.8103L86.8275 58.2685H79.5184C79.3552 59.9446 78.3933 60.9158 76.5124 61.0533H53.3312H29.7635C27.874 60.9072 26.912 59.936 26.7574 58.2427L27.4102 47.8942C27.5906 45.5048 28.2605 43.6139 29.3513 42.1699C30.0727 41.2158 30.966 40.511 31.9537 39.9609C35.0886 38.2161 42.4062 37.7004 45.2491 35.1391L49.6036 47.9544L51.7938 40.3477L50.7202 39.1702C50.2392 38.4654 50.1276 37.8465 50.4024 37.3136C50.9864 36.1619 52.1889 36.3768 53.314 36.3768C54.4907 36.3768 55.9422 36.1533 56.3115 37.6317C56.4317 38.1216 56.2771 38.6373 55.9336 39.1702L54.86 40.3477L57.0501 47.9544L60.9924 35.1391C63.8353 37.7004 71.1615 38.2161 74.2879 39.9609C75.2756 40.511 76.1774 41.2158 76.8903 42.1699C77.981 43.6139 78.651 45.4962 78.8313 47.8942L79.3295 55.5869ZM13.4877 41.4651L16.4079 50.0516L17.8766 44.9547L17.1552 44.1639C16.8288 43.6912 16.7601 43.2787 16.9404 42.9177C17.3269 42.1441 18.1343 42.2902 18.8901 42.2902C19.6803 42.2902 20.6508 42.1441 20.8999 43.1325C20.9858 43.4591 20.8741 43.8116 20.6508 44.1639L19.9293 44.9547L21.398 50.0516L24.0434 41.4651C24.4299 41.8089 24.9624 42.1011 25.5894 42.3504C25.3746 42.8059 25.1771 43.2873 25.0053 43.7858C24.5587 45.0836 24.2667 46.5276 24.1464 48.1349H24.155C24.155 48.1693 24.1464 48.2122 24.1464 48.2466L23.5109 58.1998H18.9159H2.37384C1.10269 58.1052 0.458534 57.452 0.355469 56.3174L0.793498 50.0086C0.913741 48.4099 1.36895 47.1465 2.09899 46.1752C2.57997 45.5392 3.18118 45.0664 3.84252 44.6968C5.93819 43.5279 11.581 43.1841 13.4877 41.4651ZM12.0534 29.2944C11.77 29.3202 11.5553 29.3804 11.4007 29.4835C11.3148 29.5437 11.2461 29.621 11.2031 29.707C11.1516 29.8101 11.1344 29.9476 11.1344 30.0938C11.1516 30.5665 11.4007 31.2025 11.8902 31.9331L11.8988 31.9503L13.5307 34.546C14.1834 35.5774 14.862 36.6346 15.7037 37.4082C16.5024 38.1388 17.4729 38.6373 18.7613 38.6373C20.1527 38.6373 21.1661 38.1216 21.9992 37.348C22.8667 36.5315 23.5538 35.4141 24.2323 34.2968L26.0617 31.2799C26.4311 30.4376 26.5427 29.9304 26.4225 29.6898C26.3452 29.5437 26.0446 29.5007 25.5464 29.5437C25.2286 29.6124 24.8937 29.5523 24.5415 29.3718L25.4605 26.6213C22.1023 26.5784 19.8091 25.9939 17.0864 24.2577C16.1932 23.6904 15.927 23.0372 15.0337 23.0973C14.3552 23.2263 13.7884 23.5271 13.3417 24.017C12.9123 24.4811 12.5859 25.1172 12.3712 25.9337L12.9123 29.2256C12.6375 29.3975 12.3454 29.4147 12.0534 29.2944ZM26.5942 28.4779C26.9893 28.5982 27.2814 28.8217 27.4531 29.1741C27.728 29.7328 27.6249 30.5665 27.101 31.7526C27.0924 31.7784 27.0838 31.7956 27.0666 31.8214L25.2115 34.8812C24.49 36.0674 23.7599 37.2535 22.7808 38.1732C21.7588 39.1358 20.4962 39.7718 18.7699 39.7633C17.1552 39.7633 15.9441 39.1444 14.9478 38.2333C13.9945 37.3566 13.2644 36.2393 12.5773 35.1391L10.9455 32.5434C10.3357 31.6323 10.0265 30.8071 10.0007 30.1195C9.9921 29.7843 10.0436 29.4835 10.1725 29.2256C10.3013 28.942 10.4988 28.7099 10.7737 28.5294C10.9025 28.4435 11.0571 28.3661 11.2203 28.306C11.1172 26.9136 11.0829 25.1945 11.1516 23.7506C11.1859 23.3982 11.2547 23.0458 11.3491 22.6934C11.77 21.2064 12.8092 20.0031 14.1061 19.178C14.5613 18.8857 15.0595 18.6451 15.592 18.456C18.7269 17.3214 22.8753 17.9403 25.0998 20.3469C26.0016 21.3267 26.5771 22.6246 26.6973 24.3436L26.5942 28.4779ZM42.9989 16.9862C42.6381 17.0292 42.3547 17.1237 42.1486 17.2613C42.0197 17.3472 41.9167 17.4675 41.8565 17.5965C41.7878 17.7512 41.7535 17.9489 41.7535 18.1723C41.7707 18.8857 42.1486 19.8226 42.8872 20.9056L42.9044 20.9228L45.335 24.7992C46.3055 26.3463 47.319 27.9192 48.573 29.0623C49.7668 30.1539 51.2183 30.8931 53.125 30.9017C55.2035 30.9103 56.7152 30.1367 57.952 28.985C59.2489 27.7731 60.2795 26.097 61.293 24.4296L64.0242 19.9257C64.5739 18.6709 64.7457 17.9145 64.5653 17.5535C64.4537 17.3214 63.9727 17.2698 63.1654 17.3472C63.1052 17.3558 63.0451 17.3558 62.985 17.3472C62.65 17.3472 62.2893 17.2613 61.8942 17.0808L63.1224 12.9723C58.1066 12.9121 54.6796 12.0354 50.6257 9.4397C49.2944 8.58879 48.8908 7.61754 47.5595 7.71209C46.5546 7.90977 45.7043 8.35672 45.0344 9.07871C44.3902 9.77491 43.9007 10.7204 43.5829 11.9323L44.4504 16.9003C43.935 17.1667 43.4541 17.1839 42.9989 16.9862ZM64.8144 15.7571C65.407 15.929 65.8365 16.2728 66.1027 16.7971C66.515 17.6394 66.3604 18.8771 65.5788 20.6477C65.5616 20.6821 65.5444 20.7165 65.5273 20.7423L62.7531 25.3149C61.6795 27.0855 60.5887 28.8647 59.12 30.2313C57.5912 31.6667 55.7103 32.6207 53.1336 32.6121C50.7288 32.6035 48.9165 31.6838 47.4307 30.3258C46.0049 29.0194 44.9227 27.3519 43.8921 25.7102L41.4615 21.8339C40.5596 20.4844 40.0873 19.2381 40.0529 18.2153C40.0357 17.7168 40.1216 17.2698 40.3106 16.8745C40.5081 16.4533 40.8001 16.1009 41.2038 15.8345C41.4013 15.6969 41.6246 15.5852 41.8737 15.4993C41.7277 13.4278 41.6762 10.8665 41.7707 8.70912C41.8222 8.18482 41.9253 7.66052 42.0713 7.13621C42.6897 4.91008 44.2528 3.1223 46.1853 1.8932C46.8638 1.46344 47.611 1.10245 48.4012 0.818806C53.0735 -0.87443 59.2746 0.053842 62.5899 3.6466C63.9383 5.10777 64.7886 7.05026 64.969 9.6116L64.8144 15.7571ZM73.2572 36.9183L75.4044 36.8581L77.1823 36.8151C75.1038 30.4118 75.7995 24.5241 80.8067 19.5218C81.657 22.2722 83.5552 24.5327 86.7931 26.2088C88.3391 27.3605 89.8422 28.7529 91.2851 30.343C91.5428 29.2858 90.5636 27.9965 89.3698 26.6729C90.4691 27.2144 91.4826 27.9794 92.1955 29.4405C93.0286 31.1424 93.0114 32.5691 92.7452 34.4171C92.6163 35.2766 92.4102 36.076 92.1096 36.8065H95.0727C98.1991 30.1109 96.2151 20.1836 89.825 15.972C87.8667 14.6827 86.4582 14.7257 84.1564 14.7343C81.5196 14.7343 80.1798 14.8202 77.9209 16.3072C74.597 18.5075 72.5529 22.3152 71.694 27.6012C71.5308 30.2399 71.4192 34.7953 73.2572 36.9183Z" fill="#0075C5"/>
</g>
</svg>
