<svg width="154" height="144" viewBox="0 0 154 144" fill="none" xmlns="http://www.w3.org/2000/svg">
<g id="Group">
<path id="Vector" fill-rule="evenodd" clip-rule="evenodd" d="M3.95157 54.6943H13.3053V0H37.4149V54.6943H46.3059V13.0171H64.8383V54.6943H88.8854V37.0631L116.596 54.6943H121.636V37.0631L149.347 54.6943H149.71C151.886 54.6943 153.674 56.4824 153.674 58.6582V139.049C153.674 141.225 151.886 143.013 149.71 143.013H3.95157C1.77571 143.013 0 141.225 0 139.049V58.6582C0 56.4824 1.77571 54.6943 3.95157 54.6943ZM94.8378 93.483H80.9322C80.307 93.483 79.7943 93.9957 79.7943 94.6209V108.526C79.7943 109.151 80.307 109.664 80.9322 109.664H94.8378C95.463 109.664 95.9757 109.151 95.9757 108.526V94.6209C95.9757 93.9957 95.463 93.483 94.8378 93.483ZM95.9757 72.6507H82.0702C81.4449 72.6507 80.9322 73.1633 80.9322 73.7886V87.6935C80.9322 88.3187 81.4449 88.8314 82.0702 88.8314H95.9757C96.601 88.8314 97.1137 88.3187 97.1137 87.6935V73.7886C97.1137 73.1633 96.601 72.6507 95.9757 72.6507ZM106.505 73.7886H120.41C121.036 73.7886 121.548 74.3012 121.548 74.9265V88.8314C121.548 89.4566 121.036 89.9693 120.41 89.9693H106.505C105.88 89.9693 105.367 89.4566 105.367 88.8314V74.9265C105.367 74.3012 105.88 73.7886 106.505 73.7886ZM128.664 74.9265H142.569C143.195 74.9265 143.707 75.4391 143.707 76.0644V89.9693C143.707 90.5945 143.195 91.1072 142.569 91.1072H128.664C128.039 91.1072 127.526 90.5945 127.526 89.9693V76.0644C127.526 75.4391 128.039 74.9265 128.664 74.9265ZM127.526 98.0471H141.431C142.057 98.0471 142.569 98.5598 142.569 99.185V113.09C142.569 113.715 142.057 114.228 141.431 114.228H127.526C126.901 114.228 126.388 113.715 126.388 113.09V99.185C126.388 98.5473 126.888 98.0471 127.526 98.0471ZM103.079 99.185H116.984C117.609 99.185 118.122 99.6977 118.122 100.323V114.228C118.122 114.853 117.609 115.366 116.984 115.366H103.079C102.453 115.366 101.941 114.853 101.941 114.228V100.323C101.941 99.6852 102.453 99.185 103.079 99.185Z" fill="#0075C5"/>
</g>
</svg>
