<svg width="71" height="65" viewBox="0 0 71 65" fill="none" xmlns="http://www.w3.org/2000/svg">
<path id="Vector" fill-rule="evenodd" clip-rule="evenodd" d="M17.3095 64.682C20.7413 64.682 23.5319 62.1845 23.5319 59.1088C23.5319 58.0103 23.1737 56.987 22.5555 56.1198H22.723C19.9902 53.1308 20.2791 50.6853 23.1737 49.8297H32.747C33.8274 49.8297 34.7114 48.9451 34.7114 47.864V39.3596C35.3816 33.5551 37.8601 35.278 40.7778 37.076C47.8264 41.4178 52.5119 31.1327 46.8153 27.6118C42.3435 24.8483 40.408 29.6006 37.1321 29.1092C35.8669 28.9184 34.9887 27.5483 34.7114 25.467V17.0608C34.7114 15.9797 33.8274 15.0952 32.747 15.0952H24.3638C20.3947 14.5922 19.6436 11.9212 22.7172 8.56222H22.5497C23.1679 7.69501 23.5261 6.67171 23.5261 5.57325C23.5319 2.49755 20.7471 0 17.3095 0C13.8776 0 11.0928 2.49755 11.0928 5.57325C11.0928 6.67171 11.4511 7.69501 12.0692 8.56222H12.0288C15.1024 11.9212 14.3571 14.598 10.3822 15.0952H1.96436C0.883961 15.0952 0 15.9797 0 17.0608V25.8254C0.62975 29.433 3.22964 30.0227 6.46505 27.0568V27.0973C7.33168 26.4787 8.3543 26.1203 9.45203 26.1203C12.5257 26.1203 15.0216 28.9069 15.0216 32.341C15.0216 35.7752 12.5257 38.5618 9.45203 38.5618C8.3543 38.5618 7.33168 38.2033 6.46505 37.5847V37.7524C3.22964 34.7865 0.62975 35.382 0 38.9896V47.8698C0 48.9509 0.883961 49.8355 1.96436 49.8355H11.5724C14.4669 50.6911 14.7616 53.1366 12.023 56.1256H12.0635C11.4511 56.9928 11.0871 58.0161 11.0871 59.1146C11.0928 62.1903 13.8776 64.6878 17.3095 64.682ZM53.6848 65H53.6732C50.2414 65 47.4508 62.5024 47.4508 59.4268C47.4508 58.3283 47.809 57.305 48.4272 56.4378H48.3868C51.1195 53.4488 50.8307 51.0033 47.9361 50.1476H38.3281C37.2477 50.1476 36.3637 49.2631 36.3637 48.182V39.3191C36.8259 37.9779 37.4152 37.5038 38.1086 37.4864C38.4263 37.4807 38.7614 37.5674 39.1196 37.7177C40.1249 38.1339 41.3035 39.0069 42.5861 39.5041C47.5317 41.412 51.7782 36.5961 51.4951 31.6472C51.4315 30.543 50.9867 29.4561 50.328 28.4501C47.8032 24.5882 44.0652 24.224 40.46 26.4267C38.6228 27.554 37.161 28.4039 36.3233 25.7502L36.3695 17.373C36.3753 16.2919 37.2535 15.4074 38.3339 15.4074H46.746C50.7151 14.9044 51.4662 12.2334 48.3925 8.87441H48.433C47.8148 8.00721 47.4566 6.9839 47.4566 5.88544C47.4566 2.80975 50.2414 0.312194 53.679 0.312194H53.6905C57.1224 0.312194 59.9129 2.80975 59.9129 5.88544C59.9129 6.9839 59.5547 8.00721 58.9365 8.87441H58.977C55.9033 12.2334 56.6486 14.9102 60.6236 15.4074H69.0356C70.116 15.4074 71 16.2919 71 17.373V26.1376C70.3702 29.7452 67.7704 30.3349 64.535 27.369V27.4095C63.6683 26.7909 62.6457 26.4324 61.548 26.4324C58.4743 26.4324 55.9784 29.2191 55.9784 32.6532C55.9784 36.0873 58.4743 38.8797 61.548 38.8797C62.6457 38.8797 63.6683 38.5213 64.535 37.9027V38.0704C67.7761 35.1045 70.3702 35.7 71 39.3076V48.1704C71 49.2515 70.116 50.1361 69.0356 50.1361H59.4276C56.5331 50.9917 56.2442 53.4372 58.977 56.4262H58.9308C59.5489 57.2934 59.9072 58.3167 59.9072 59.4152C59.9014 62.5024 57.1166 65 53.6848 65Z" fill="#0075C5"/>
</svg>
