<svg width="76" height="64" viewBox="0 0 76 64" fill="none" xmlns="http://www.w3.org/2000/svg">
<path id="Vector" d="M41.0714 53.842H54.625C55.7138 52.7461 56.9077 51.6063 58.1202 50.4477C60.6626 48.0115 63.3165 45.4689 66.0445 42.2875C69.1623 38.6489 69.4963 37.3901 70.4428 33.8267C70.6222 33.1566 70.8201 32.4051 71.08 31.472L72.7007 25.7041L72.7193 25.6415C73.5853 23.0738 73.6534 21.3766 73.2946 20.3996C73.1832 20.099 73.0409 19.8986 72.8739 19.7922C72.744 19.7045 72.5708 19.6732 72.3914 19.692C71.9708 19.7358 71.4944 20.0051 71.0614 20.4873L66.2486 32.092C66.2053 32.1984 66.1435 32.2986 66.0754 32.3863C65.7909 32.9061 65.4073 33.4134 64.9125 33.8956L56.3695 43.5275C55.9056 44.0536 55.1075 44.0974 54.5941 43.6277C54.0745 43.158 54.0312 42.3501 54.4951 41.8303L63.0381 32.1922C63.0752 32.1483 63.1123 32.1045 63.1556 32.0669C64.0402 31.2152 64.3186 30.2946 64.1639 29.6245C64.1145 29.4178 64.0279 29.2425 63.9041 29.1235C63.7866 29.017 63.6319 28.9419 63.4402 28.9231C62.6793 28.8417 61.5596 29.4116 60.1925 31.0461C60.1554 31.0899 60.1121 31.1338 60.0688 31.1776L56.7592 34.1336L56.7407 34.1524C53.1589 37.5843 51.6186 38.3984 48.8101 39.8826C48.2225 40.1958 47.5791 40.534 46.7811 40.9723C46.4656 41.1477 46.1563 41.3606 45.8532 41.5923C45.5315 41.8429 45.2222 42.0996 44.9315 42.3501C43.4468 43.6152 42.6674 44.6422 42.222 45.7758C41.758 46.9531 41.591 48.3873 41.3621 50.3538C41.2693 51.1491 41.2013 51.9319 41.1456 52.7148C41.1085 53.0968 41.0899 53.4725 41.0714 53.842ZM37.9227 5.48208C40.4466 2.82047 42.2096 0.522087 46.0945 0.0649154C53.3816 -0.780538 60.0873 6.77844 56.4066 14.2184C55.355 16.3352 53.227 18.859 50.8639 21.3328C48.272 24.0507 45.4078 26.7061 43.3973 28.7227L37.9227 34.2212L33.4007 29.8124C27.9569 24.5017 19.0799 17.8257 18.7892 9.54652C18.585 3.74734 23.1009 0.0336023 28.3034 0.102491C32.9491 0.158855 34.8977 2.50107 37.9227 5.48208ZM34.9224 53.842H21.3626C20.2738 52.7461 19.0799 51.6063 17.8675 50.4477C15.325 48.0115 12.6712 45.4689 9.94312 42.2875C6.82535 38.6489 6.4913 37.3901 5.54483 33.8267C5.36544 33.1566 5.16748 32.4051 4.90767 31.472L3.28692 25.7041L3.26836 25.6415C2.40231 23.0738 2.33427 21.3766 2.69306 20.3996C2.80441 20.099 2.94669 19.8986 3.11371 19.7922C3.24362 19.7045 3.41683 19.6732 3.59622 19.692C4.02925 19.7295 4.50557 20.0051 4.9386 20.4811L9.75135 32.0857C9.79465 32.1922 9.85651 32.2924 9.92456 32.38C10.2091 32.8998 10.5927 33.4071 11.0875 33.8893L19.6243 43.5275C20.0883 44.0536 20.8863 44.0974 21.3997 43.6277C21.9193 43.158 21.9626 42.3501 21.4987 41.8303L12.9557 32.1859C12.9186 32.1421 12.8815 32.0982 12.8382 32.0606C11.9536 31.2089 11.6752 30.2883 11.8299 29.6182C11.8794 29.4116 11.966 29.2362 12.0897 29.1172C12.2072 29.0107 12.3619 28.9356 12.5536 28.9168C13.3145 28.8354 14.4404 29.4053 15.8013 31.0398C15.8384 31.0837 15.8817 31.1275 15.925 31.1713L19.2346 34.1273L19.2531 34.1461C22.8349 37.578 24.3752 38.3921 27.1837 39.8764C27.7713 40.1895 28.4147 40.5277 29.2127 40.9661C29.5282 41.1414 29.8375 41.3544 30.1406 41.5861C30.4623 41.8366 30.7716 42.0934 31.0623 42.3439C32.547 43.6089 33.3264 44.636 33.7718 45.7695C34.2358 46.9469 34.4028 48.381 34.6317 50.3475C34.7245 51.1428 34.7925 51.9257 34.8482 52.7085C34.8853 53.0968 34.9039 53.4725 34.9224 53.842ZM18.2077 54.2804C18.0159 54.5059 17.8984 54.8002 17.8984 55.1196V62.7224C17.8984 63.4301 18.4675 64 19.1604 64H36.2215C36.9205 64 37.4835 63.4301 37.4835 62.7224V55.0507C37.4835 54.2366 37.434 53.3598 37.3783 52.5457C37.3226 51.7127 37.2484 50.8861 37.1556 50.0657C36.9082 47.9176 36.7226 46.3457 36.1287 44.8364C35.5163 43.2895 34.5327 41.9556 32.7078 40.3962C32.3738 40.1081 32.0335 39.82 31.6748 39.5507C31.2974 39.2626 30.8891 38.9871 30.4314 38.7303C29.689 38.3233 28.9962 37.9538 28.3652 37.6156C25.7671 36.2378 24.3443 35.4863 20.9976 32.2798C20.9729 32.2548 20.9419 32.2297 20.9172 32.2109L17.6881 29.3239C15.7147 26.9879 13.7847 26.2114 12.3062 26.3742H12.3C11.5762 26.4493 10.9576 26.7374 10.4627 27.1758L7.2027 19.3099H7.19651C7.14702 19.1972 7.08516 19.0908 7.00474 18.9906C6.10158 17.8946 4.95716 17.2558 3.86222 17.1431C3.11371 17.0679 2.38994 17.2308 1.75896 17.6441C1.15891 18.0386 0.664029 18.6524 0.354726 19.4978C-0.189647 20.9695 -0.177275 23.2554 0.886727 26.418L2.4951 32.1483C2.73017 32.975 2.93431 33.7703 3.12608 34.4717C4.17771 38.4485 4.54888 39.8576 8.05637 43.9408C10.8339 47.1786 13.5496 49.7839 16.1601 52.2826C16.8344 52.9527 17.5149 53.6103 18.2077 54.2804ZM20.6203 56.3972C20.7873 56.4348 20.9605 56.4348 21.1337 56.3972H34.9534V61.4448H20.4223V56.3972H20.6203ZM57.7861 54.2804C57.9779 54.5059 58.0954 54.8002 58.0954 55.1196V62.7224C58.0954 63.4301 57.5325 64 56.8335 64H39.7785C39.0795 64 38.5165 63.4301 38.5165 62.7224V55.0507C38.5165 55.0069 38.5165 54.9568 38.5227 54.9129C38.5413 54.0925 38.5722 53.2972 38.6217 52.5457C38.6774 51.7127 38.7516 50.8861 38.8444 50.0657C39.0918 47.9176 39.2774 46.3457 39.8713 44.8364C40.4837 43.2895 41.4673 41.9556 43.2922 40.3962C43.6262 40.1081 43.9665 39.82 44.3252 39.5507C44.7026 39.2626 45.1109 38.9871 45.5686 38.7303C46.311 38.3233 47.0038 37.9538 47.6348 37.6156C50.2329 36.2378 51.6557 35.4863 55.0024 32.2798C55.0271 32.2548 55.0581 32.2297 55.0828 32.2109L58.3119 29.3239C60.2853 26.9879 62.2153 26.2114 63.6938 26.3742H63.7C64.4238 26.4493 65.0424 26.7374 65.5372 27.1758L68.7973 19.3099H68.8035C68.853 19.1972 68.9148 19.0908 68.9953 18.9906C69.8984 17.8946 71.0428 17.2558 72.1378 17.1431C72.8863 17.0679 73.6101 17.2308 74.241 17.6441C74.8411 18.0386 75.336 18.6524 75.6453 19.4978C76.1897 20.9695 76.1773 23.2554 75.1133 26.418L73.5049 32.1483C73.2698 32.975 73.0657 33.7703 72.8739 34.4717C71.8223 38.4485 71.4511 39.8576 67.9436 43.9408C65.1661 47.1786 62.4504 49.7839 59.8399 52.2826C59.1594 52.9527 58.479 53.6103 57.7861 54.2804ZM55.3736 56.3972C55.2065 56.4348 55.0333 56.4348 54.8601 56.3972H41.0405V61.4448H55.5715V56.3972H55.3736Z" fill="#0075C5"/>
</svg>
