<svg width="184" height="169" viewBox="0 0 184 169" fill="none" xmlns="http://www.w3.org/2000/svg">
<path id="Vector" d="M53.2702 36.2082H58.6604V31.2864H58.6904C58.6904 29.4707 59.4241 27.8201 60.6069 26.6347L60.592 26.6197C61.7599 25.4493 63.3919 24.714 65.2186 24.714H65.2336V24.684H75.3254V8.76319H75.3554C75.3554 6.34731 76.3436 4.15651 77.9157 2.58094C79.4879 1.00537 81.659 0.0450164 84.0547 0.0300109V0H99.3271V0.0300109C101.738 0.0300109 103.924 1.02037 105.496 2.59594C107.053 4.17152 108.026 6.34731 108.041 8.74818H108.056V24.699H118.148V24.729C119.96 24.729 121.607 25.4643 122.79 26.6647C123.958 27.8351 124.691 29.4707 124.691 31.2714V31.2864H124.706V36.2082H130.097C132.058 36.2082 133.825 37.0035 135.113 38.2789L135.128 38.2639C136.4 39.5394 137.179 41.31 137.194 43.2907H137.224V71.621H137.194C137.194 72.3113 137.089 72.9865 136.909 73.6318L157.303 83.5654L136.505 104.798V125.986C139.694 124.38 142.21 121.994 144.576 119.744C149.352 115.212 153.709 111.07 161.241 110.98C169.715 110.89 172.455 115.272 178.295 119.774C179.238 120.509 180.211 121.259 181.514 122.204L181.664 122.309C184.164 124.125 184.733 127.636 182.906 130.142C181.095 132.663 177.591 133.218 175.076 131.403L174.926 131.298C173.953 130.592 172.695 129.617 171.452 128.657C167.17 125.341 165.942 122.144 161.315 122.189C158.231 122.219 155.386 124.92 152.287 127.877C146.432 133.444 139.919 139.626 127.117 139.041C116.292 139.536 109.973 135.184 104.732 130.457H77.5414C72.0613 134.584 66.102 138.335 57.4327 138.23C47.5205 138.35 41.142 133.429 34.9731 128.657C30.6909 125.341 26.5433 122.144 21.9167 122.189C18.8322 122.219 15.9874 124.92 12.8879 127.877C11.735 128.972 10.5522 130.097 9.23453 131.223C6.88376 133.248 3.35013 132.963 1.34375 130.607C-0.662634 128.252 -0.39312 124.71 1.95764 122.7C3.0357 121.769 4.11376 120.749 5.17684 119.744C9.95323 115.212 14.3104 111.07 21.8418 110.98C30.3165 110.89 35.9763 115.272 41.8158 119.774C44.4511 121.814 47.1312 123.87 50.051 125.281V104.108L32.3379 83.2203L47.1612 75.2374C46.5473 74.187 46.1879 72.9565 46.1879 71.6511H46.1729V43.3057H46.1879C46.1879 41.325 46.9815 39.5394 48.2542 38.2639C48.4788 38.0388 48.7184 37.8438 48.9579 37.6637C50.1408 36.7634 51.6381 36.2232 53.2702 36.2082ZM57.4327 156.942H57.4925C63.5566 157.032 68.3779 153.311 73.0495 149.694C78.889 145.178 84.5488 140.796 93.0235 140.901C100.555 140.976 104.912 145.118 109.688 149.664C113.926 153.701 118.642 158.173 126.848 157.752C126.952 157.752 127.042 157.752 127.147 157.752C127.252 157.752 127.342 157.752 127.446 157.752C135.637 158.188 140.353 153.701 144.606 149.664C149.382 145.133 153.739 140.991 161.27 140.901C169.745 140.811 172.485 145.178 178.325 149.694C179.268 150.43 180.241 151.18 181.544 152.125L181.679 152.23C184.179 154.031 184.748 157.542 182.951 160.048C181.14 162.554 177.651 163.124 175.15 161.324L175.001 161.219L174.986 161.204L174.971 161.219C173.998 160.513 172.74 159.538 171.497 158.578C167.215 155.261 165.987 152.065 161.36 152.11C158.276 152.14 155.431 154.841 152.332 157.797C146.477 163.364 139.964 169.547 127.162 168.961C114.375 169.547 107.862 163.364 101.992 157.797C98.878 154.841 96.048 152.155 92.9636 152.11C88.3519 152.065 84.1894 155.276 79.9071 158.578C73.7383 163.349 67.3598 168.271 57.4476 168.151C47.5355 168.271 41.157 163.349 34.9881 158.578C30.7058 155.261 26.5583 152.065 21.9316 152.11C18.8472 152.14 16.0023 154.841 12.9029 157.797C11.75 158.893 10.5671 160.018 9.2495 161.144C6.89874 163.154 3.36511 162.884 1.35872 160.528C-0.647661 158.173 -0.378147 154.631 1.97262 152.62C3.05067 151.69 4.12873 150.67 5.19181 149.664C9.9682 145.133 14.3254 140.991 21.8568 140.901C30.3315 140.811 35.9913 145.178 41.8308 149.694C46.5024 153.296 51.3237 157.032 57.3877 156.942H57.4327ZM61.5053 67.5096L91.3316 51.4387L124.347 67.5096H126.024V47.4172H119.631C119.466 47.4322 119.301 47.4322 119.121 47.4322C116.022 47.4322 113.507 44.9113 113.507 41.8052V35.9531H102.456C99.3571 35.9531 96.8416 33.4322 96.8416 30.326V11.2541H86.5402V30.341C86.5402 33.4472 84.0247 35.9681 80.9253 35.9681H69.8752V41.8202H69.8603C69.8603 44.9113 67.3598 47.4172 64.2753 47.4172H57.3877V67.5096H61.5053Z" fill="#0075C5"/>
</svg>
