<svg width="161" height="161" viewBox="0 0 161 161" fill="none" xmlns="http://www.w3.org/2000/svg">
<path id="Vector" fill-rule="evenodd" clip-rule="evenodd" d="M80.4993 0C124.953 0 161 36.0484 161 80.4993C161 124.954 124.952 161 80.4993 161C36.0471 161.001 0 124.954 0 80.4993C0 36.0484 36.0471 0 80.4993 0ZM102.61 8.50996C129.624 17.489 149.893 41.2618 153.798 70.2232L151.239 69.9494C150.784 71.9082 150.366 71.9579 150.366 74.3164C150.366 76.397 152.987 77.7898 152.987 82.1817C152.987 83.3583 150.223 85.7115 150.101 86.1216L145.998 81.3078V87.4252L145.374 87.4016L144.268 76.114L141.977 76.8359L139.25 68.4387L130.269 77.8134L130.161 84.6777L127.229 86.6443L124.114 69.0374L122.251 70.3988L118.032 64.7058L111.726 64.8932L109.31 62.1325L106.838 62.8125L101.974 57.2388L101.035 57.8782L104.048 65.5797H107.545V63.8319H109.292C110.552 67.3145 111.913 65.2522 111.913 67.3289C111.913 74.5968 102.937 79.9399 97.0567 81.3078C97.3712 82.6219 97.2494 83.9322 98.8033 83.9322C102.096 83.9322 100.459 83.3557 104.048 83.0582C103.882 90.4833 95.5316 99.351 91.9665 104.879L93.5624 116.265C93.9829 118.737 88.4276 121.354 86.5382 124.138L87.4449 128.5L84.886 129.533C84.4379 134.014 80.0879 138.985 75.2086 138.985H69.9677C69.9677 132.85 65.5968 124.093 65.5968 119.758C65.5968 116.076 67.3433 115.581 67.3433 111.02C67.3433 106.806 62.9763 100.763 62.9763 99.6602V92.6688H59.4793C58.9604 90.7205 59.2775 90.0483 56.8588 90.0483H55.9849C52.1669 90.0483 52.8115 91.7949 48.9935 91.7949H45.4965C42.3441 91.7949 36.7586 81.6786 36.7586 80.4338V69.9481C36.7586 65.4225 40.9002 60.496 43.75 58.5857V54.2187L47.6833 50.2199L49.8674 49.8478C54.5568 49.8478 53.9999 47.2273 56.8588 47.2273H64.7255V53.3448L73.373 57.037L74.188 53.3055C78.1069 54.2239 79.1262 55.9679 83.9544 55.9679H85.701C89.0172 55.9679 89.1954 51.5681 89.1954 48.1039L82.1948 48.7957L79.1498 42.1606L76.1219 42.9664C76.6656 45.3406 76.963 44.354 76.963 46.356C76.963 47.5352 75.9921 47.6662 75.2139 48.1039L72.1859 40.4193L65.6754 35.7693L64.8106 36.6184L70.3542 42.4515C69.6179 44.544 69.5314 50.5868 66.4746 46.3547L69.3335 44.979L62.2085 37.5119L57.9398 39.1812L53.7261 43.2167C53.2858 46.4674 52.4001 48.1026 48.9987 48.1026C46.7347 48.1026 48.1012 47.5169 44.6278 47.2286V38.4907H52.4918L49.9434 32.6706L48.9987 33.2471V31.498L61.7696 25.6098C61.5285 23.7768 61.235 24.7595 61.235 22.76C61.235 22.6408 62.0932 21.0279 62.1089 21.0096L65.412 23.0601L64.622 19.2984L59.5265 20.3466L58.5805 15.7739C62.6212 13.6461 71.5125 6.15678 74.3399 6.15678H76.963C79.7237 6.15678 87.1186 8.88075 88.3214 10.5238L81.3091 9.81364L86.512 14.0994L87.0112 12.2716L90.8947 11.2077L90.9419 8.77724H92.6924V11.3977L102.61 8.50996ZM153.249 94.1205C153.047 95.2237 152.824 96.3165 152.578 97.4013L152.176 94.5817L153.249 94.1205ZM150.732 104.03C150.539 104.614 150.343 105.201 150.136 105.78H149.494V104.03H150.732ZM15.4057 122.087C10.6574 114.89 7.11063 106.835 5.03391 98.2071L19.2119 105.044L19.284 109.275C19.284 110.829 16.6308 114.136 15.7896 115.392L15.4057 122.087Z" fill="#0075C5"/>
</svg>
