<svg width="191" height="114" viewBox="0 0 191 114" fill="none" xmlns="http://www.w3.org/2000/svg">
<path id="Vector" fill-rule="evenodd" clip-rule="evenodd" d="M65.0431 89.5246C64.6109 92.2299 64.7462 94.9949 65.4408 97.6455C66.1353 100.296 67.3739 102.775 69.0787 104.926C70.7834 107.077 72.9173 108.854 75.3461 110.144C77.7749 111.435 80.4459 112.211 83.1909 112.424C85.936 112.637 88.6956 112.282 91.2961 111.382C93.8966 110.482 96.2817 109.056 98.301 107.194C100.32 105.332 101.93 103.074 103.03 100.563C104.129 98.0511 104.694 95.3404 104.688 92.6012C104.682 91.571 104.599 90.5428 104.441 89.5246H138.721C138.595 90.4784 138.533 91.4393 138.535 92.4012C138.535 97.7375 140.666 102.855 144.459 106.629C148.252 110.402 153.396 112.522 158.76 112.522C164.124 112.522 169.268 110.402 173.061 106.629C176.854 102.855 178.984 97.7375 178.984 92.4012C178.987 91.1991 178.879 89.9993 178.66 88.817C181.86 88.7256 184.899 87.4035 187.14 85.1286C189.38 82.8537 190.647 79.8033 190.674 76.6186V37.1465L165.517 10.2268H131.051V70.0194H7.35352C6.02558 69.9986 4.74274 70.4984 3.78218 71.4108C2.82163 72.3232 2.2605 73.575 2.22005 74.8957V84.6176C2.24849 85.9436 2.80222 87.2048 3.76073 88.1267C4.71924 89.0486 6.00495 89.5566 7.33805 89.54H12.9508C12.7855 90.5573 12.7028 91.5861 12.7035 92.6166C12.6292 95.268 13.09 97.9072 14.0587 100.378C15.0273 102.85 16.4841 105.102 18.3429 107.004C20.2017 108.905 22.4248 110.417 24.8808 111.449C27.3368 112.481 29.9759 113.013 32.642 113.013C35.3081 113.013 37.9472 112.481 40.4032 111.449C42.8592 110.417 45.0823 108.905 46.9411 107.004C48.7999 105.102 50.2567 102.85 51.2253 100.378C52.194 97.9072 52.6548 95.268 52.5806 92.6166C52.5738 91.5864 52.4911 90.5582 52.3332 89.54H65.0431V89.5246ZM118.929 0.0126953H7.01335C5.33451 0.0207836 3.72675 0.687857 2.53961 1.86888C1.35248 3.04991 0.681958 4.6494 0.673828 6.3196L0.673828 65.0354H125.269V6.3196C125.264 4.64816 124.595 3.04633 123.407 1.86443C122.219 0.682537 120.609 0.0167572 118.929 0.0126953ZM24.965 92.7089C24.965 102.754 40.3035 102.754 40.3035 92.7089C40.3035 81.941 24.965 83.0639 24.965 92.7089ZM150.967 92.3858C150.967 102.554 166.522 102.554 166.522 92.3858C166.522 82.2179 150.967 82.1563 150.967 92.3858ZM165.393 21.8561L178.088 36.9312V42.4074H143.684V21.8561H165.393ZM77.0882 92.7089C77.0882 102.754 92.4268 102.754 92.4268 92.7089C92.4268 82.664 77.0882 82.6793 77.0882 92.7089Z" fill="#0075C5"/>
</svg>
