<svg width="170" height="170" viewBox="0 0 170 170" fill="none" xmlns="http://www.w3.org/2000/svg">
<path id="Vector" fill-rule="evenodd" clip-rule="evenodd" d="M85 0L103.704 15.2043L127.5 11.3859L136.091 33.9087L158.614 42.5L154.796 66.2956L170 85L154.796 103.704L158.614 127.5L136.091 136.091L127.5 158.614L103.704 154.796L85 170L66.2956 154.796L42.5 158.614L33.9087 136.091L11.3859 127.5L15.2043 103.704L0 85L15.2043 66.2956L11.3859 42.5L33.9087 33.9087L42.5 11.3859L66.2956 15.2043L85 0ZM56.473 77.972H70.0724C71.1654 77.972 72.0646 78.8713 72.0646 79.978V106.568C72.0646 107.661 71.1654 108.574 70.0724 108.574H56.473C55.38 108.574 54.467 107.675 54.467 106.568V79.978C54.4808 78.8713 55.38 77.972 56.473 77.972ZM85.8024 58.0363C86.8538 52.6961 95.5973 57.6213 96.1784 66.2264C96.3582 68.855 96.0816 71.9263 95.4313 75.3434H107.924C113.126 75.5509 117.65 79.2725 114.454 85.3874C115.187 88.0436 115.298 91.1703 113.306 92.4015C113.555 96.6073 112.393 99.2082 110.221 101.27C110.082 103.372 109.626 105.24 108.616 106.679C106.942 109.045 105.572 108.477 102.93 108.477H81.8319C78.4839 108.477 76.6716 107.55 74.4857 104.811V81.3062C80.7804 79.6045 84.1146 70.9994 85.8024 65.3548V58.0363ZM85 33.2308C113.596 33.2308 136.769 56.4176 136.769 85C136.769 113.596 113.582 136.769 85 136.769C56.4038 136.769 33.2308 113.582 33.2308 85C33.2308 56.4038 56.4038 33.2308 85 33.2308Z" fill="#0075C5"/>
</svg>
