<svg width="78" height="78" viewBox="0 0 78 78" fill="none" xmlns="http://www.w3.org/2000/svg">
<path id="Vector" fill-rule="evenodd" clip-rule="evenodd" d="M38.9997 0C60.5362 0 78 17.4644 78 38.9997C78 60.5368 60.5356 78 38.9997 78C17.4638 78.0006 0 60.5368 0 38.9997C0 17.4644 17.4638 0 38.9997 0ZM49.7114 4.12284C62.7991 8.47292 72.619 19.9902 74.5107 34.0212L73.271 33.8885C73.0507 34.8375 72.8482 34.8616 72.8482 36.0042C72.8482 37.0122 74.1177 37.687 74.1177 39.8147C74.1177 40.3848 72.779 41.5248 72.72 41.7235L70.7319 39.3913V42.3551L70.4297 42.3437L69.894 36.8751L68.7838 37.2249L67.4628 33.1566L63.1115 37.6984L63.0594 41.024L61.6388 41.9768L60.1299 33.4467L59.2273 34.1062L57.1833 31.3482L54.1282 31.4389L52.9577 30.1015L51.7598 30.4309L49.4036 27.7306L48.9484 28.0404L50.4084 31.7715H52.1026V30.9248H52.9488C53.5594 32.612 54.2189 31.6129 54.2189 32.619C54.2189 36.14 49.8701 38.7286 47.0213 39.3913C47.1736 40.028 47.1146 40.6628 47.8674 40.6628C49.4626 40.6628 48.6698 40.3835 50.4084 40.2394C50.3278 43.8366 46.2824 48.1328 44.5552 50.8109L45.3283 56.327C45.5321 57.5248 42.8407 58.7925 41.9253 60.1414L42.3646 62.2545L41.1249 62.7553C40.9078 64.9263 38.8004 67.3346 36.4365 67.3346H33.8974C33.8974 64.362 31.7798 60.1198 31.7798 58.0193C31.7798 56.2356 32.6259 55.9957 32.6259 53.786C32.6259 51.7446 30.5103 48.8171 30.5103 48.2826V44.8954H28.8161C28.5647 43.9515 28.7183 43.6259 27.5465 43.6259H27.1231C25.2734 43.6259 25.5857 44.472 23.736 44.472H22.0418C20.5145 44.472 17.8085 39.571 17.8085 38.9679V33.8879C17.8085 31.6954 19.815 29.3086 21.1956 28.3831V26.2675L23.1012 24.3301L24.1594 24.1499C26.4312 24.1499 26.1614 22.8803 27.5465 22.8803H31.3577V25.8441L35.5472 27.6328L35.942 25.825C37.8406 26.27 38.3344 27.1149 40.6736 27.1149H41.5197C43.1263 27.1149 43.2127 24.9833 43.2127 23.305L39.8211 23.6401L38.3459 20.4257L36.8789 20.816C37.1423 21.9662 37.2864 21.4883 37.2864 22.4582C37.2864 23.0295 36.8161 23.093 36.439 23.305L34.9721 19.582L31.8179 17.3292L31.3989 17.7406L34.0847 20.5666C33.7279 21.5803 33.686 24.5079 32.2051 22.4576L33.5902 21.791L30.1383 18.1735L28.0702 18.9822L26.0288 20.9373C25.8155 22.5121 25.3864 23.3043 23.7385 23.3043C22.6416 23.3043 23.3037 23.0206 21.6209 22.8809V18.6477H25.4308L24.1962 15.828L23.7385 16.1073V15.2599L29.9256 12.4072C29.8088 11.5192 29.6666 11.9953 29.6666 11.0266C29.6666 10.9688 30.0824 10.1874 30.09 10.1785L31.6903 11.172L31.3075 9.34954L28.8389 9.85736L28.3806 7.64201C30.3382 6.61114 34.6458 2.98279 36.0156 2.98279H37.2864C38.6239 2.98279 42.2065 4.30248 42.7893 5.09848L39.392 4.75443L41.9126 6.83077L42.1545 5.94526L44.036 5.42983L44.0588 4.25233H44.9069V5.52187L49.7114 4.12284ZM74.2447 45.5988C74.1469 46.1332 74.039 46.6626 73.9197 47.1882L73.7248 45.8222L74.2447 45.5988ZM73.0253 50.3995C72.932 50.6826 72.8368 50.967 72.7365 51.2476H72.4254V50.3995H73.0253ZM7.46364 59.1479C5.16323 55.6611 3.4449 51.7586 2.43879 47.5786L9.30764 50.8908L9.34256 52.9405C9.34256 53.6934 8.05715 55.2955 7.64962 55.9043L7.46364 59.1479Z" fill="#0075C5"/>
</svg>
