<svg width="78" height="78" viewBox="0 0 78 78" fill="none" xmlns="http://www.w3.org/2000/svg">
<path fill-rule="evenodd" clip-rule="evenodd" d="M39 0L47.582 6.97607L58.5 5.22412L62.4419 15.5581L72.7759 19.5L71.0239 30.418L78 39L71.0239 47.582L72.7759 58.5L62.4419 62.4419L58.5 72.7759L47.582 71.0239L39 78L30.418 71.0239L19.5 72.7759L15.5581 62.4419L5.22412 58.5L6.97607 47.582L0 39L6.97607 30.418L5.22412 19.5L15.5581 15.5581L19.5 5.22412L30.418 6.97607L39 0ZM25.9111 35.7754H32.1509C32.6523 35.7754 33.0649 36.188 33.0649 36.6958V48.896C33.0649 49.3975 32.6523 49.8164 32.1509 49.8164H25.9111C25.4097 49.8164 24.9907 49.4038 24.9907 48.896V36.6958C24.9971 36.188 25.4097 35.7754 25.9111 35.7754ZM39.3682 26.6284C39.8506 24.1782 43.8623 26.438 44.1289 30.3862C44.2114 31.5923 44.0845 33.0015 43.7861 34.5693H49.5181C51.9048 34.6646 53.9805 36.3721 52.5142 39.1777C52.8506 40.3965 52.9014 41.8311 51.9873 42.396C52.1016 44.3257 51.5684 45.519 50.5718 46.4648C50.5083 47.4297 50.2988 48.2866 49.8354 48.9468C49.0674 50.0322 48.439 49.772 47.2266 49.772H37.5464C36.0103 49.772 35.1787 49.3467 34.1758 48.0898V37.3052C37.064 36.5244 38.5938 32.5762 39.3682 29.9863V26.6284ZM39 15.2471C52.1206 15.2471 62.7529 25.8857 62.7529 39C62.7529 52.1206 52.1143 62.7529 39 62.7529C25.8794 62.7529 15.2471 52.1143 15.2471 39C15.2471 25.8794 25.8794 15.2471 39 15.2471Z" fill="#0075C5"/>
</svg>
