<svg width="111" height="122" viewBox="0 0 111 122" fill="none" xmlns="http://www.w3.org/2000/svg">
<rect width="111" height="122" fill="#1E1E1E"/>
<g id="Pharma - Manufacturer">
<rect width="1920" height="3215" transform="translate(-1503 -1081)" fill="#F5F5F5"/>
<g id="Group">
<path id="Vector" fill-rule="evenodd" clip-rule="evenodd" d="M55.3061 0.046875C76.0022 13.1572 94.6988 19.3597 110.745 17.8934C113.547 74.5391 92.6152 107.992 55.5206 121.953C19.6986 108.886 -1.48975 76.8724 0.0817138 17.0342C18.9184 18.0194 37.3987 13.9499 55.3061 0.046875ZM41.1551 56.1072H42.5826V52.8026C42.5826 49.1428 44.026 45.8075 46.3519 43.3838C48.6957 40.9413 51.9329 39.4245 55.4987 39.4245C59.0645 39.4245 62.3028 40.9413 64.6456 43.3838C66.9715 45.8075 68.4149 49.1428 68.4149 52.8026V56.1072H69.8424C71.0009 56.1072 71.9499 57.0547 71.9499 58.2134V80.4697C71.9499 81.6285 71.0009 82.5759 69.8424 82.5759H41.1551C39.9956 82.5759 39.0476 81.6285 39.0476 80.4697V58.2134C39.0466 57.0547 39.9956 56.1072 41.1551 56.1072ZM53.7684 70.7682L51.4941 76.7206H59.5013L57.3948 70.6868C58.732 69.9993 59.6463 68.6064 59.6463 67.0003C59.6463 64.7105 57.7889 62.8544 55.4977 62.8544C53.2066 62.8544 51.3502 64.7105 51.3502 67.0003C51.3502 68.6719 52.3409 70.1124 53.7684 70.7682ZM46.5733 56.1072H64.4232V52.8026C64.4232 50.2004 63.4096 47.8432 61.7766 46.1408C60.1615 44.4573 57.9388 43.4116 55.4977 43.4116C53.0577 43.4116 50.834 44.4573 49.2198 46.1408C47.5858 47.8432 46.5733 50.2004 46.5733 52.8026V56.1072Z" fill="black"/>
</g>
</g>
</svg>
